<?xml version="1.0" encoding="utf-8"?>
<!-- Generator: Adobe Illustrator 24.0.1, SVG Export Plug-In . SVG Version: 6.00 Build 0)  -->
<svg version="1.1" id="Camada_1" xmlns="http://www.w3.org/2000/svg" xmlns:xlink="http://www.w3.org/1999/xlink" x="0px" y="0px"
	 viewBox="0 0 23 22" style="enable-background:new 0 0 23 22;" xml:space="preserve">
<style type="text/css">
	.st0{fill:none;stroke:#667580;stroke-width:2;}
</style>
<title>icon</title>
<desc>Created with Sketch.</desc>
<g id="Page-1">
	<g id="TWITTER-PROFILE-2018" transform="translate(-127.000000, -12.000000)">
		<g id="Header">
			<g id="Left-side" transform="translate(128.000000, 8.000000)">
				<g id="Home" transform="translate(0.000000, 5.000000)">
					<path id="icon" class="st0" d="M10.5,0.3c-0.8,0-10.3,8.6-10.4,9.8c-0.2,1.1,0.7,1.3,1.3,0.9C1.8,10.9,3,10.6,3,10.6
						s1.4,6.8,2.3,8.5c1.2,0.7,9.1,0.7,10.3,0c1.2-0.9,2.5-8.6,2.5-8.6s0.9,0.3,1.4,0.6c0.5,0.4,1.7,0.1,1.5-1
						C20.4,8.7,11.3,0.3,10.5,0.3z M8.3,9c0-1.2,1-2.2,2.2-2.2c1.2,0,2.2,1,2.2,2.2c0,1.2-1,2.2-2.2,2.2C9.3,11.3,8.3,10.3,8.3,9z"
						/>
				</g>
			</g>
		</g>
	</g>
</g>
</svg>
