<?xml version="1.0" encoding="utf-8"?>
<!-- Generator: Adobe Illustrator 24.0.1, SVG Export Plug-In . SVG Version: 6.00 Build 0)  -->
<svg version="1.1" id="Camada_1" xmlns="http://www.w3.org/2000/svg" xmlns:xlink="http://www.w3.org/1999/xlink" x="0px" y="0px"
	 viewBox="0 0 18 16" style="enable-background:new 0 0 18 16;" xml:space="preserve">
<style type="text/css">
	.st0{fill:#667580;}
</style>
<title>icon</title>
<desc>Created with Sketch.</desc>
<g id="Page-1">
	<g id="TWITTER-PROFILE-2018" transform="translate(-345.000000, -16.000000)">
		<g id="Header">
			<g id="Left-side" transform="translate(128.000000, 8.000000)">
				<g id="Discover" transform="translate(217.000000, 7.000000)">
					<g id="icon" transform="translate(0.000000, 1.000000)">
						<path id="Shape" class="st0" d="M9,7.9l7-3.7c0.5-0.3,1.1-0.1,1.4,0.4s0.1,1.1-0.4,1.4l-7.5,4C9.2,10,8.8,10,8.5,9.9L1,5.9
							C0.5,5.6,0.4,5,0.6,4.5S1.5,3.9,2,4.1L9,7.9z"/>
						<path id="Shape_1_" class="st0" d="M15.5,13.5v-11h-13v11H15.5z M15.5,15.5h-13c-1.1,0-2-0.9-2-2v-11c0-1.1,0.9-2,2-2h13
							c1.1,0,2,0.9,2,2v11C17.5,14.6,16.6,15.5,15.5,15.5z"/>
					</g>
				</g>
			</g>
		</g>
	</g>
</g>
</svg>
