<?xml version="1.0" encoding="utf-8"?>
<!-- Generator: Adobe Illustrator 24.0.1, SVG Export Plug-In . SVG Version: 6.00 Build 0)  -->
<svg version="1.1" id="Camada_1" xmlns="http://www.w3.org/2000/svg" xmlns:xlink="http://www.w3.org/1999/xlink" x="0px" y="0px"
	 viewBox="0 0 17 23" style="enable-background:new 0 0 17 23;" xml:space="preserve">
<style type="text/css">
	.st0{fill:#667580;}
</style>
<path class="st0" d="M15.9,8.3c-0.2-0.4-0.7-0.7-1.1-0.7h-4.1L12,2.2c0.2-0.4,0-0.8-0.1-1L11.8,1c-0.3-0.3-0.6-0.4-1-0.4H4
	c-0.7,0-1.1,0.5-1.3,1L1,11.6c0,0.3,0.1,0.6,0.3,0.8l0.1,0.1C1.6,12.8,2,13,2.3,13h2.3l-1.1,7.8c-0.1,0.3-0.1,0.6,0.1,0.9
	c0.1,0.2,0.3,0.4,0.5,0.5c0.2,0.2,0.4,0.2,0.6,0.2c0.3,0,0.6-0.1,1-0.4L15.8,9.7C16.1,9.3,16.1,8.9,15.9,8.3z M7.1,11.1l-0.1-0.1
	c-0.3-0.3-0.6-0.4-1-0.4H3.8L5,3.1h4.2L8,8.5c-0.2,0.4,0,0.8,0.1,1l0.1,0.1c0.3,0.3,0.6,0.4,1,0.4h3l-5.5,6.8l0.7-5
	C7.4,11.6,7.3,11.3,7.1,11.1z M4.7,21.9L4.7,21.9L4.7,21.9L4.7,21.9z"/>
</svg>
