<?xml version="1.0" encoding="utf-8"?>
<!-- Generator: Adobe Illustrator 24.0.1, SVG Export Plug-In . SVG Version: 6.00 Build 0)  -->
<svg version="1.1" id="Camada_1" xmlns="http://www.w3.org/2000/svg" xmlns:xlink="http://www.w3.org/1999/xlink" x="0px" y="0px"
	 viewBox="0 0 16 20" style="enable-background:new 0 0 16 20;" xml:space="preserve">
<style type="text/css">
	.st0{fill:#667580;}
</style>
<title>Shape</title>
<desc>Created with Sketch.</desc>
<g id="Page-1">
	<g id="TWITTER-PROFILE-2018" transform="translate(-220.000000, -13.000000)">
		<g id="Header">
			<g id="Left-side" transform="translate(128.000000, 8.000000)">
				<g id="Notifications" transform="translate(92.000000, 0.000000)">
					<g id="ic_notifications_none_24px" transform="translate(0.000000, 5.000000)">
						<path id="Shape" class="st0" d="M8,19.8c1.1,0,2-0.9,2-2H6C6,18.9,6.9,19.8,8,19.8z M14,13.8v-5c0-3.1-1.6-5.6-4.5-6.3V1.8
							c0-0.8-0.7-1.5-1.5-1.5S6.5,0.9,6.5,1.8v0.7C3.6,3.1,2,5.7,2,8.8v5l-2,2v1h16v-1L14,13.8z M12,14.8H4v-6c0-2.5,1.5-4.5,4-4.5
							s4,2,4,4.5V14.8z"/>
					</g>
				</g>
			</g>
		</g>
	</g>
</g>
</svg>
